<svg viewBox="0 0 34 28.8" xmlns="http://www.w3.org/2000/svg"><g><path d="M6.2 28.78c.01-3.85.08-14.46.12-14.99.07-1.07.58-2.97 1.01-3.83 1.09-2.16 2.84-3.92 4.88-4.92 1.78-.89 2.67-1.1 4.59-1.11 1.86-.01 2.37.07 3.78.56 3.24 1.14 5.89 4.04 6.75 7.42.38 1.45.42 2.41.45 10.06l.01 6.8h3.27c.8 0 2.17-1.19 2.64-2.26.3-.69.3-.76.3-5.01-.01-4.83-.05-5.05-.92-6.04-.27-.31-.75-.68-1.03-.81-.37-.16-.54-.33-.55-.51-.01-.16-.03-.42-.05-.6-.11-.99-.2-1.66-.24-1.83-.86-3.64-2.73-6.57-5.52-8.7C23.81 1.57 22.13.46 20.05.22c-.4-.08-2.91-.2-3.05-.2l-2.27.19c-.88.15-1.09.22-2.25.6-1.99.65-3.75 1.71-5.35 3.21-.85.8-2 2.26-2.75 3.49L3.31 9.75c-.58 1.88-.79 3.47-.83 4.4-.01.18-.18.34-.54.5-.68.3-1.5 1.25-1.77 2.04-.18.55-.21 1.27-.17 5.06.04 4.26.05 4.43.33 4.94.54.98 1.46 1.99 2.23 2.06" fill="#fff"/><path d="M8.01 14.7c-.26.16-.46.41-.52.65-.06.22-.1 3.1-.1 6.4 0 5.52.03 6 .24 6.34.35.52 1.04.8 1.5.54.8-.59.81-.63.81-2.6.03-6.66.03-10.41-.05-10.62-.12-.29-.33-.62-.69-.81-.42-.23-.71-.2-1.19.1zM24.73 14.72c-.71.65-.69.12-.69 6.84 0 5.4.03 6.24.21 6.51.29.41.38.58 1.14.68.9-.09 1.15-.75 1.16-1.06.06-1.13.04-11.87-.03-12.19-.05-.25-.21-.55-.35-.68-.33-.32-1.06-.31-1.44-.1z" fill="#fff"/></g></svg>
