<svg xmlns="http://www.w3.org/2000/svg" viewBox="0 0 100 125"><path d="M90.422 20.022H76.135l-7.377 17.213H31.242l-7.377-17.213H9.578A3.582 3.582 0 0 0 6 23.602v52.8a3.58 3.58 0 0 0 3.578 3.576h80.844A3.58 3.58 0 0 0 94 76.4V23.6a3.582 3.582 0 0 0-3.578-3.578zM92.646 76.4a2.227 2.227 0 0 1-2.225 2.224H9.58A2.226 2.226 0 0 1 7.354 76.4V23.6c0-1.227.998-2.225 2.224-2.225h13.394l7.377 17.213h39.3l7.376-17.213H90.42c1.228 0 2.226.998 2.226 2.225v52.8z"/><path d="M25.244 47.873a6.873 6.873 0 0 0-6.866 6.865 6.874 6.874 0 0 0 6.866 6.866 6.874 6.874 0 0 0 6.866-6.866 6.873 6.873 0 0 0-6.866-6.865zm0 12.378c-3.04 0-5.512-2.472-5.512-5.51s2.473-5.513 5.512-5.513c3.04 0 5.512 2.473 5.512 5.512s-2.473 5.512-5.512 5.512zm34.233-12.377H40.523a3.58 3.58 0 0 0-3.578 3.577v6.576a3.582 3.582 0 0 0 3.578 3.578h18.954a3.58 3.58 0 0 0 3.578-3.578V51.45a3.582 3.582 0 0 0-3.578-3.577zM61.7 58.026a2.227 2.227 0 0 1-2.224 2.225H40.523a2.226 2.226 0 0 1-2.224-2.223V51.45c0-1.226.996-2.224 2.222-2.224h18.954c1.227 0 2.225.998 2.225 2.224v6.576zm13.056-10.153a6.873 6.873 0 0 0-6.865 6.865 6.873 6.873 0 0 0 6.867 6.866 6.874 6.874 0 0 0 6.866-6.866 6.873 6.873 0 0 0-6.866-6.865zm0 12.378c-3.04 0-5.512-2.472-5.512-5.51s2.473-5.513 5.512-5.513 5.512 2.473 5.512 5.512-2.473 5.512-5.512 5.512zM28.338 20.023h43.324v1.354H28.338z"/></svg>