<svg xmlns="http://www.w3.org/2000/svg" viewBox="0 0 50 50"><path fill="#fff" d="M7.384 25.314c-.083 0-.15.074-.163.16l-.38 3.504.38 3.425c.013.092.08.158.164.158.08 0 .146-.065.16-.157l.435-3.425-.44-3.503c-.005-.092-.073-.16-.153-.16M5.94 26.66c-.08 0-.147.06-.155.15L5.5 28.98l.285 2.126c.01.09.073.154.156.154s.147-.066.16-.154l.34-2.13-.34-2.17c-.013-.088-.073-.146-.156-.146m2.97-2.028c-.1 0-.184.08-.196.19l-.36 4.156.364 4.005c.008.11.09.19.195.19.098 0 .18-.08.195-.19l.415-4.005-.415-4.156c-.014-.11-.097-.19-.195-.19m1.543-.146a.234.234 0 0 0-.23.224l-.34 4.266.34 4.134c.013.126.11.224.233.224s.22-.098.23-.224l.39-4.132-.39-4.27c-.016-.122-.113-.22-.233-.22m1.816 8.656zm0-8.127a.265.265 0 0 0-.258-.258c-.14 0-.254.11-.263.26l-.325 3.956.325 4.168c.01.146.122.256.263.256.14 0 .25-.113.26-.26l.37-4.167-.364-3.958-.008.002zm1.312-2.774a.297.297 0 0 0-.293.293l-.312 6.444.305 4.17a.3.3 0 0 0 .292.286c.16 0 .288-.13.298-.292l.34-4.164-.34-6.444a.308.308 0 0 0-.298-.293m1.565-1.482a.333.333 0 0 0-.33.325l-.284 7.917.286 4.14a.333.333 0 0 0 .33.326c.175 0 .316-.14.328-.324v.005l.322-4.145-.322-7.915a.335.335 0 0 0-.33-.324m1.617-.72a.364.364 0 0 0-.357.36l-.268 8.58.268 4.094a.367.367 0 0 0 .36.356.372.372 0 0 0 .366-.358l.3-4.095-.3-8.58a.372.372 0 0 0-.366-.358m2.003.07a.397.397 0 0 0-.395-.39c-.214 0-.39.17-.39.39l-.248 8.868.244 4.07a.397.397 0 0 0 .794 0l.276-4.07-.276-8.868h-.005zm0 12.936zm1.224-13.135a.43.43 0 0 0-.426.427l-.226 8.64.226 4.033a.43.43 0 0 0 .427.42.43.43 0 0 0 .43-.425v.005l.256-4.035-.258-8.638a.427.427 0 0 0-.427-.427m1.634.28a.468.468 0 0 0-.463.464l-.204 8.325.21 4.005a.46.46 0 0 0 .463.454c.25 0 .452-.2.462-.46l.227-4-.233-8.328a.468.468 0 0 0-.463-.463m1.918-1.526a.515.515 0 0 0-.273-.082.467.467 0 0 0-.27.078.507.507 0 0 0-.225.414v.093l-.188 9.813.188 3.983v.014a.503.503 0 0 0 .494.473.484.484 0 0 0 .346-.146.484.484 0 0 0 .146-.346l.024-.394.188-3.583-.212-9.91c0-.17-.09-.315-.22-.406m.222 14.3v-.004.005zm1.412-15.238a.503.503 0 0 0-.27-.074.526.526 0 0 0-.528.524v.054l-.22 10.75.116 1.99.104 1.933a.535.535 0 0 0 .53.524.534.534 0 0 0 .528-.525v.005l.232-3.925-.234-10.805a.538.538 0 0 0-.263-.45m14.533 6.14a4.77 4.77 0 0 0-1.852.374c-.385-4.32-4.01-7.712-8.433-7.712a8.56 8.56 0 0 0-3.067.573c-.365.146-.458.285-.463.565v15.225a.565.565 0 0 0 .52.55h13.296c2.65 0 4.797-2.12 4.797-4.772a4.795 4.795 0 0 0-4.797-4.797"/></svg>